<svg xmlns="http://www.w3.org/2000/svg" width="335" height="335" viewBox="0 0 335 335"><title>app-type-enterprise-purple</title><g id="ready-for-export"><path d="M224.29,105.89a3.9,3.9,0,1,0-3.82-6.07l3.82,2.2Z" fill="none"/><path d="M166.72,272a3.91,3.91,0,1,0,3.91-3.9A3.92,3.92,0,0,0,166.72,272Z" fill="none"/><path d="M193.28,227.75a3.91,3.91,0,1,0,3.91-3.91A3.91,3.91,0,0,0,193.28,227.75Z" fill="none"/><path d="M221.8,165.78a3.81,3.81,0,0,0,1.65.38,3.9,3.9,0,0,0,.84-7.71v5.9Z" fill="none"/><path d="M170.61,42.08a3.91,3.91,0,1,0,3.91,3.9A3.91,3.91,0,0,0,170.61,42.08Z" fill="none"/><path d="M196.7,34.51a3.91,3.91,0,1,0-3.91-3.9A3.91,3.91,0,0,0,196.7,34.51Z" fill="none"/><path d="M177.64,74.42l1.73,1a1,1,0,0,1,.49,1l2.77,1.6a1,1,0,0,1,1.07-.06l1.74,1a1,1,0,0,1,.49,1l2.76,1.6a1,1,0,0,1,1.08-.06l1.73,1a1,1,0,0,1,.49,1l3.67,2.12V36.42a6,6,0,0,1-2.83-1.36l-16.55,9.26a6.05,6.05,0,0,1,.24,1.66,5.9,5.9,0,0,1-4.91,5.81V66.93a5.91,5.91,0,0,1,4.64,5.77,6,6,0,0,1-.19,1.48l.51.3A1,1,0,0,1,177.64,74.42Z" fill="none"/><path d="M119.36,100.28a3.86,3.86,0,0,0-2.72-1.11,3.89,3.89,0,0,0-.31,7.77V102Z" fill="none"/><path d="M144.33,85.69a1.48,1.48,0,0,1,1.48-1.48,1.32,1.32,0,0,1,.34,0,.69.69,0,0,1,.18-.16l1.73-1a1,1,0,0,1,1,0l2.83-1.63a1,1,0,0,1,.48-.9l1.73-1a1,1,0,0,1,1,0L158,78a1,1,0,0,1,.48-.9l1.74-1a1,1,0,0,1,1,0L164,74.49a1,1,0,0,1,.49-.9h0a5.26,5.26,0,0,1-.08-.89,5.9,5.9,0,0,1,5.17-5.85V51.79a5.9,5.9,0,0,1-4.9-5.81,6,6,0,0,1,.1-1L146.64,35a5.91,5.91,0,0,1-3,1.44V86a1.06,1.06,0,0,1,0,.19l.06.07a0,0,0,0,0,0,0l.65-.38S144.33,85.74,144.33,85.69Z" fill="none"/><path d="M174.21,73.11a2.71,2.71,0,0,0,0-.41,3.91,3.91,0,1,0-7.81,0c0,.13,0,.25,0,.37l3.83-2.21Z" fill="none"/><path d="M170.61,16.88a3.9,3.9,0,1,0-3.9-3.9A3.91,3.91,0,0,0,170.61,16.88Z" fill="none"/><path d="M116.33,158.39a3.89,3.89,0,0,0,.34,7.77,3.83,3.83,0,0,0,1.9-.52l-2.24-1.29Z" fill="none"/><path d="M223.63,251.91a3.91,3.91,0,1,0-3.91-3.91A3.91,3.91,0,0,0,223.63,251.91Z" fill="none"/><path d="M55.56,69.24a1.53,1.53,0,0,0-.4,1,1.57,1.57,0,0,0,.44,1.11l7.7,8a1.54,1.54,0,0,0,1.09.47,1.58,1.58,0,0,0,1.08-.41l1.25-1.13L56.94,68.13Z" fill="none"/><path d="M75,79.21l2.7,1.9a2.32,2.32,0,0,0,1.8.52.91.91,0,0,0,.65-.47l5.36-10a2.54,2.54,0,0,0-.84-2.72C81.07,72.8,77.51,76.63,75,79.21Z" fill="none"/><path d="M71.59,64.35l3.38,1a.46.46,0,0,0,.44-.11L78,62.73a.45.45,0,0,0,.13-.44l-.82-3.4a.42.42,0,0,0-.29-.31l-3.38-.95a.25.25,0,0,0-.12,0,.44.44,0,0,0-.32.13L70.61,60.2a.47.47,0,0,0-.14.43L71.29,64A.43.43,0,0,0,71.59,64.35Z" fill="none"/><path d="M93,246.84a3.91,3.91,0,1,0-3.91,3.9A3.92,3.92,0,0,0,93,246.84Z" fill="none"/><path d="M170.36,199a3.91,3.91,0,0,0,3.9-3.9,3.76,3.76,0,0,0-.36-1.61l-3.59,2.07-3.52-2a3.88,3.88,0,0,0,3.57,5.47Z" fill="none"/><path d="M56.38,59.82c2.61-2.32,6.45-5.61,10.78-9a2.46,2.46,0,0,0-1.5-.62,1.45,1.45,0,0,0-.59.12L54.94,55.22a1.11,1.11,0,0,0-.57.69,2.1,2.1,0,0,0,.31,1.63Z" fill="none"/><path d="M112.58,227.44a3.91,3.91,0,1,0,3.91-3.91A3.91,3.91,0,0,0,112.58,227.44Z" fill="none"/><path d="M146.6,30.61a3.91,3.91,0,1,0-3.9,3.9A3.91,3.91,0,0,0,146.6,30.61Z" fill="none"/><path d="M71.3,80.17A224.26,224.26,0,0,0,86.43,63.1c9.24-11.77,12.73-19.92,9.82-23s-11.19.14-23.32,8.92A221.05,221.05,0,0,0,55.28,63.52Zm.47-23.87a2.51,2.51,0,0,1,2.38-.6l3.37.95h0a2.45,2.45,0,0,1,1.7,1.77L80,61.83a2.51,2.51,0,0,1-.69,2.35l-2.56,2.45a2.45,2.45,0,0,1-1.71.69,2.5,2.5,0,0,1-.66-.09l-3.37-1a2.39,2.39,0,0,1-1.7-1.76l-.82-3.41a2.48,2.48,0,0,1,.69-2.35Z" fill="none"/><path d="M93,180.61a3.91,3.91,0,1,0-3.91,3.9A3.92,3.92,0,0,0,93,180.61Z" fill="none"/><path d="M120.49,166.75l5.71,3.3-5.32-3.67A4.59,4.59,0,0,1,120.49,166.75Z" fill="#cbd5e0" opacity="0.3"/><path d="M196.57,180a1,1,0,0,1,.23.05.88.88,0,0,1,.36-.45l21.51-13.87a5.9,5.9,0,0,1,3.78-9.27V107.82a5.92,5.92,0,0,1-4.69-5.77,6.15,6.15,0,0,1,.29-1.83L196.14,87.57a1,1,0,0,1-.4-1.24,1,1,0,0,1-.08-.38V85.5L192,83.38a1,1,0,0,1-.13.41,1,1,0,0,1-1.36.37l-1.73-1a1,1,0,0,1-.37-1.37,1,1,0,0,1,.29-.31l-2.76-1.6a1,1,0,0,1-.13.41,1,1,0,0,1-.87.5,1,1,0,0,1-.49-.13l-1.74-1a1,1,0,0,1-.36-1.37,1,1,0,0,1,.29-.31l-2.77-1.6a1,1,0,0,1-.12.41,1,1,0,0,1-1.37.37l-1.73-1a1,1,0,0,1-.37-1.37,1,1,0,0,1,.3-.31l-.51-.3a5.9,5.9,0,0,1-10.94,1.26H165a1,1,0,0,1-.87-.5.83.83,0,0,1-.12-.46l-2.82,1.63a1,1,0,0,1,.34.33,1,1,0,0,1-.36,1.37l-1.74,1a1,1,0,0,1-1.36-.37A.83.83,0,0,1,158,78l-2.82,1.63a1.07,1.07,0,0,1,.34.33,1,1,0,0,1-.37,1.37l-1.73,1a1,1,0,0,1-.5.13A1,1,0,0,1,152,82a.83.83,0,0,1-.12-.46l-2.83,1.63a.92.92,0,0,1,.35.33,1,1,0,0,1-.37,1.37l-1.73,1-.06,0a1.47,1.47,0,0,1-1.46,1.32,1.48,1.48,0,0,1-1.47-1.31l-.65.38a1,1,0,0,1-.38,1.34L121.7,100.05a5.88,5.88,0,0,1-4.41,8.89v47.45a5.91,5.91,0,0,1,5.28,5.87,5.84,5.84,0,0,1-.55,2.47l22.37,15.42a1,1,0,0,1,.42.64l4.68,2.7a1,1,0,0,1,.72.1l1.73,1a1,1,0,0,1,.45.58l3.16,1.82a1,1,0,0,1,.72.1l1.73,1a1,1,0,0,1,.45.58l3.16,1.82a1,1,0,0,1,.72.1l1.74,1a1,1,0,0,1,.45.58l.53.31a5.89,5.89,0,0,1,10.53-.18,1.22,1.22,0,0,1,.27,0l3.25-1.87a1,1,0,0,1,.42-.51l1.73-1a1,1,0,0,1,.65-.11l3.27-1.89a1,1,0,0,1,.41-.5l1.73-1a1,1,0,0,1,.59-.11,1.48,1.48,0,1,1,2.17-1.31s0,.07,0,.1l1.17-.67a1,1,0,0,1,.41-.51l1.74-1a1,1,0,0,1,.64-.11l1.58-.91A1,1,0,0,1,196.57,180Zm4.91-70.88a3,3,0,1,1-3,3A3,3,0,0,1,201.48,109.1Zm-58,7.1a1.48,1.48,0,1,1-1.47,1.48A1.48,1.48,0,0,1,143.44,116.2Zm33.49,56.54a1.48,1.48,0,1,1,1.48-1.48A1.48,1.48,0,0,1,176.93,172.74Zm13.76-11.39a1,1,0,0,1-.5.14,1,1,0,0,1-.5-.14l-8.84-5.1a1,1,0,0,1-.5-.87v-4.19H160.27v4.19a1,1,0,0,1-.5.87l-8.84,5.1a1,1,0,0,1-.5.14,1,1,0,0,1-.5-.14l-8.84-5.1a1,1,0,0,1-.5-.87v-10.2a1,1,0,0,1,.5-.87l8.84-5.11a1,1,0,0,1,1,0l3.39,2,10.13-17.1-3.46-2a1,1,0,0,1-.5-.86V111a1,1,0,0,1,.5-.87l8.84-5.1a1,1,0,0,1,1,0l8.84,5.1a1,1,0,0,1,.5.87V121.2a1,1,0,0,1-.5.86l-3.37,2,10.11,17.09,3.28-1.9a1,1,0,0,1,1,0l8.84,5.11a1,1,0,0,1,.5.87v10.2a1,1,0,0,1-.5.87Z" fill="#cbc0d8" opacity="0.3"/><path d="M257.79,145.59a9.93,9.93,0,0,1,3.8,4.38,9.56,9.56,0,0,1,3.77-4.38,9.66,9.66,0,0,1-3.77-4.38A10,10,0,0,1,257.79,145.59Z" fill="none"/><path d="M174.56,125l-3.73,2.16a1,1,0,0,1-.5.13,1,1,0,0,1-.5-.13l-3.65-2.11-10.13,17.1,3.72,2.15a1,1,0,0,1,.5.87v4h20.08v-4a1,1,0,0,1,.5-.87l3.83-2.21Z" fill="#cbc0d8" opacity="0.3"/><path d="M119.52,54.75a8.25,8.25,0,0,1,2.8-3.24,8.22,8.22,0,0,1-2.8-3.23,8.42,8.42,0,0,1-2.81,3.23A8.52,8.52,0,0,1,119.52,54.75Z" fill="none"/><path d="M116.49,233.34a5.9,5.9,0,0,1-1-11.72V200.56L92.39,185.5a5.78,5.78,0,0,1-2.26.92v26.07a1,1,0,0,1-.31.72,1.06,1.06,0,0,1-.41.48L59.85,230.41a1.05,1.05,0,0,1-.49.13,1,1,0,0,1-.55-.18,124.36,124.36,0,0,0,29.13,37.16V252.63a5.91,5.91,0,1,1,2,0V268.3a1,1,0,0,1-.28.69,123.56,123.56,0,0,0,53.83,26.23V245.06L121,231.22A5.92,5.92,0,0,1,116.49,233.34Z" fill="none"/><path d="M147.9,33.4,165.51,43a5.89,5.89,0,0,1,9.88-.51l16.15-9A5.85,5.85,0,0,1,192,27L175.22,16.66a5.89,5.89,0,0,1-9.73-.76L147.4,27.05a5.89,5.89,0,0,1,.5,6.35Zm28.67-4.24a1.48,1.48,0,1,1-1.48,1.48A1.48,1.48,0,0,1,176.57,29.16Z" fill="none"/><path d="M49.65,247.47a1,1,0,0,0-1-1H10.12a1,1,0,1,0,0,2H48.65A1,1,0,0,0,49.65,247.47Z" fill="#79599f"/><path d="M318.33,264.47h-37.2a1,1,0,0,0,0,2h37.2a1,1,0,0,0,0-2Z" fill="#79599f"/><path d="M241.54,50.13A144.8,144.8,0,0,1,305,226.93a1,1,0,0,0,.58,1.29.92.92,0,0,0,.36.07,1,1,0,0,0,.93-.65A146.79,146.79,0,0,0,242.53,48.4a1,1,0,0,0-1,1.73Z" fill="#79599f"/><path d="M23,229.82h13.4a1,1,0,1,0,0-2H23a1,1,0,0,0,0,2Z" fill="#79599f"/><path d="M264.42,285A144.61,144.61,0,0,1,57.11,266.47h8.71a1,1,0,0,0,0-2H34.62a1,1,0,0,0,0,2H54.54a146.63,146.63,0,0,0,211.19,20,1,1,0,1,0-1.31-1.51Z" fill="#79599f"/><path d="M24,176.68a1,1,0,0,0,1-1A143.1,143.1,0,0,1,56.33,85.83a1,1,0,0,0-1.57-1.24A145.09,145.09,0,0,0,23,175.68,1,1,0,0,0,24,176.68Z" fill="#79599f"/><path d="M30.93,102.66a1,1,0,0,0,1.35-.4A145.5,145.5,0,0,1,49.12,77.54,1,1,0,0,0,49,76.13a1,1,0,0,0-1.41.12,147.92,147.92,0,0,0-17.07,25.06A1,1,0,0,0,30.93,102.66Z" fill="#79599f"/><path d="M292.6,192.1h.14a1,1,0,0,0,1-.86,127.94,127.94,0,0,0,1.17-17.19,125.67,125.67,0,0,0-44.5-96,1,1,0,0,0-1.29,1.53,123.67,123.67,0,0,1,43.79,94.48A125.57,125.57,0,0,1,291.75,191,1,1,0,0,0,292.6,192.1Z" fill="#79599f"/><path d="M196.15,264.08a1,1,0,0,0,.87.5,1,1,0,0,0,.5-.13l21.7-12.53a5.9,5.9,0,1,0,5.39-9.73V194.56a1,1,0,0,0-2,0v47.63a5.88,5.88,0,0,0-4.45,8l-21.64,12.5A1,1,0,0,0,196.15,264.08Zm27.48-20a3.91,3.91,0,1,1-3.91,3.9A3.91,3.91,0,0,1,223.63,244.1Z" fill="#79599f"/><path d="M143.26,181.8a1,1,0,0,0,.56.18,1,1,0,0,0,1-1.19L126.2,170.05Z" fill="#79599f"/><path d="M299.93,247.47a1,1,0,0,0-1-1H270.4a1,1,0,0,0-.55.19,1,1,0,0,0-.75.39,123.85,123.85,0,0,1-123.64,48.56.53.53,0,0,0,0-.12v-51a1,1,0,0,0-.67-.94.71.71,0,0,0-.09-.07l-22.71-14a5.73,5.73,0,0,0,.37-2,5.91,5.91,0,0,0-4.9-5.82V200a1,1,0,0,0-.67-.93l-.06-.07-22.9-14.93a5.83,5.83,0,0,0,.14-6.73l18.65-10.77a5.88,5.88,0,0,0,7.84.18l-1.92-1.11a3.83,3.83,0,0,1-1.9.52,3.89,3.89,0,0,1-.34-7.77V106.94a3.89,3.89,0,1,1,3-6.66l24.33-14a0,0,0,0,1,0,0l-.06-.07a1.06,1.06,0,0,0,0-.19V36.43a5.91,5.91,0,0,0,3-1.44l18.17,9.94a6,6,0,0,0-.1,1,5.9,5.9,0,0,0,4.9,5.81V66.85a5.9,5.9,0,0,0-5.17,5.85,5.26,5.26,0,0,0,.08.89h0a1,1,0,0,0-.49.9l2.45-1.42c0-.12,0-.24,0-.37a3.91,3.91,0,1,1,7.81,0,2.71,2.71,0,0,1,0,.41l1.85,1.07a6,6,0,0,0,.19-1.48,5.91,5.91,0,0,0-4.64-5.77V51.79A5.9,5.9,0,0,0,176.52,46a6.05,6.05,0,0,0-.24-1.66l16.55-9.26a6,6,0,0,0,2.83,1.36V85.5l24.81,14.32a3.9,3.9,0,1,1,3.82,6.07v52.56a3.9,3.9,0,0,1-.84,7.71,3.81,3.81,0,0,1-1.65-.38l-26.2,15.13a.24.24,0,0,0,0,.08l.52,41a5.9,5.9,0,1,0,2,0l-.51-40.51h.11a1,1,0,0,0,.54-.16l21.89-14.12a5.92,5.92,0,0,0,3.32,1,5.86,5.86,0,0,0,3.68-1.29l22,12.7v32.92a1,1,0,0,0,.46.81.9.9,0,0,0,.36.39l29.58,16.9a1,1,0,0,0,.49.13,1,1,0,0,0,.5-1.87l-29.39-16.79V179.49a1,1,0,0,0-.32-.73,1,1,0,0,0-.48-.81l-21.84-12.61a5.89,5.89,0,0,0-4-8.9V107.89A5.9,5.9,0,1,0,219,98.45L197.63,86.12a1,1,0,0,0,0-.17V36.43a5.9,5.9,0,1,0-4.09-10.82l-17.38-10.7A5.9,5.9,0,1,0,164.71,13a6.64,6.64,0,0,0,.09,1L145.87,25.64a5.84,5.84,0,0,0-3.17-.94,5.91,5.91,0,0,0-1,11.72V86a.93.93,0,0,0,.05.24L120.38,98.5a5.9,5.9,0,1,0-5.09,10.31v47.71a5.92,5.92,0,0,0-4.53,5.74,5.78,5.78,0,0,0,.67,2.71L92.57,175.85a5.81,5.81,0,0,0-3.48-1.15,5.9,5.9,0,0,0-1,11.73v25.69L58.87,228.67a1,1,0,0,0-.49.83,123.94,123.94,0,0,1-5.26-99,1,1,0,0,0-1.87-.71A125.85,125.85,0,0,0,270.54,248.47h28.39A1,1,0,0,0,299.93,247.47Zm-98.84-19.72a3.91,3.91,0,1,1-3.9-3.91A3.91,3.91,0,0,1,201.09,227.75ZM170.61,49.89A3.91,3.91,0,1,1,174.52,46,3.91,3.91,0,0,1,170.61,49.89ZM196.7,26.7a3.91,3.91,0,1,1-3.91,3.91A3.91,3.91,0,0,1,196.7,26.7ZM170.61,9.08a3.9,3.9,0,1,1-3.9,3.9A3.91,3.91,0,0,1,170.61,9.08Zm-5.12,6.82a5.89,5.89,0,0,0,9.73.76L192,27a5.85,5.85,0,0,0-.49,6.47l-16.15,9a5.89,5.89,0,0,0-9.88.51L147.9,33.4a5.89,5.89,0,0,0-.5-6.35Zm-26.7,14.71a3.91,3.91,0,1,1,3.91,3.9A3.91,3.91,0,0,1,138.79,30.61Zm-18.4,196.83a3.91,3.91,0,1,1-3.9-3.91A3.91,3.91,0,0,1,120.39,227.44Zm-35.2-46.83a3.91,3.91,0,1,1,3.9,3.9A3.91,3.91,0,0,1,85.19,180.61Zm58.3,114.61A123.56,123.56,0,0,1,89.66,269a1,1,0,0,0,.28-.69V252.67a5.9,5.9,0,1,0-2,0v14.89a124.36,124.36,0,0,1-29.13-37.16,1,1,0,0,0,.55.18,1.05,1.05,0,0,0,.49-.13l29.56-16.72a1.06,1.06,0,0,0,.41-.48,1,1,0,0,0,.31-.72V186.42a5.78,5.78,0,0,0,2.26-.92l23.1,15.06v21.06a5.9,5.9,0,1,0,5.53,9.6l22.47,13.84ZM89.06,250.74a3.91,3.91,0,1,1,3.91-3.9A3.91,3.91,0,0,1,89.06,250.74Z" fill="#79599f"/><path d="M219.55,162.26a3.91,3.91,0,0,1,3.9-3.91,3.86,3.86,0,0,1,.84.1V105.89a4.34,4.34,0,0,1-.62.06,3.91,3.91,0,0,1-3.91-3.9,3.82,3.82,0,0,1,.71-2.23L195.66,85.5V86a1,1,0,0,0,.08.38,1,1,0,0,0,.4,1.24l21.91,12.65a6.15,6.15,0,0,0-.29,1.83,5.92,5.92,0,0,0,4.69,5.77v48.62a5.9,5.9,0,0,0-3.78,9.27l-21.51,13.87a.88.88,0,0,0-.36.45,1,1,0,0,0-.23-.05,1,1,0,0,0-1,.93l26.2-15.13A3.88,3.88,0,0,1,219.55,162.26Z" fill="#79599f"/><path d="M165,75.45h.1a5.9,5.9,0,0,0,10.94-1.26l-1.85-1.07a3.88,3.88,0,0,1-7.73,0L164,74.49a.83.83,0,0,0,.12.46A1,1,0,0,0,165,75.45Z" fill="#79599f"/><path d="M122,164.73a5.84,5.84,0,0,0,.55-2.47,5.91,5.91,0,0,0-5.28-5.87V108.94a5.88,5.88,0,0,0,4.41-8.89l21.61-12.48a1,1,0,0,0,.38-1.34l-24.33,14a3.87,3.87,0,0,1,1.19,2.79,3.91,3.91,0,0,1-3.91,3.9l-.31,0v51.45c.12,0,.22,0,.34,0a3.89,3.89,0,0,1,1.9,7.29l1.92,1.11a4.59,4.59,0,0,0,.39-.37l5.32,3.67,18.61,10.74a1,1,0,0,0-.42-.64Z" fill="#79599f"/><polygon points="182.35 145.75 182.35 154.81 190.19 159.33 198.03 154.81 198.03 145.75 190.19 141.23 182.35 145.75" fill="#cbc0d8"/><path d="M200,155.38v-10.2a1,1,0,0,0-.5-.87l-8.84-5.11a1,1,0,0,0-1,0l-3.28,1.9L176.3,124l3.37-2a1,1,0,0,0,.5-.86V111a1,1,0,0,0-.5-.87l-8.84-5.1a1,1,0,0,0-1,0l-8.84,5.1a1,1,0,0,0-.5.87V121.2a1,1,0,0,0,.5.86l3.46,2-10.13,17.1-3.39-2a1,1,0,0,0-1,0l-8.84,5.11a1,1,0,0,0-.5.87v10.2a1,1,0,0,0,.5.87l8.84,5.1a1,1,0,0,0,.5.14,1,1,0,0,0,.5-.14l8.84-5.1a1,1,0,0,0,.5-.87v-4.19h20.08v4.19a1,1,0,0,0,.5.87l8.84,5.1a1,1,0,0,0,.5.14,1,1,0,0,0,.5-.14l8.84-5.1A1,1,0,0,0,200,155.38Zm-37.54-34.76v-9.05l7.84-4.53,7.84,4.53v9.05l-7.84,4.53Zm-4.22,34.19-7.84,4.52-7.84-4.52v-9.06l7.84-4.52,7.84,4.52Zm22.08-9.63v4H160.27v-4a1,1,0,0,0-.5-.87l-3.72-2.15,10.13-17.1,3.65,2.11a1,1,0,0,0,.5.13,1,1,0,0,0,.5-.13l3.73-2.16,10.12,17.09-3.83,2.21A1,1,0,0,0,180.35,145.18ZM198,154.81l-7.84,4.52-7.84-4.52v-9.06l7.84-4.52,7.84,4.52Z" fill="#79599f"/><polygon points="142.59 145.75 142.59 154.81 150.43 159.33 158.27 154.81 158.27 145.75 150.43 141.23 142.59 145.75" fill="#cbc0d8"/><polygon points="178.17 120.62 178.17 111.57 170.33 107.04 162.49 111.57 162.49 120.62 170.33 125.15 178.17 120.62" fill="#cbc0d8"/><path d="M185.44,78.92l-1.74-1a1,1,0,0,0-1.07.06l3.3,1.9A1,1,0,0,0,185.44,78.92Z" fill="#79599f"/><path d="M182.34,78.29a1,1,0,0,0,.36,1.37l1.74,1a1,1,0,0,0,.49.13,1,1,0,0,0,.87-.5,1,1,0,0,0,.13-.41l-3.3-1.9A1,1,0,0,0,182.34,78.29Z" fill="#79599f"/><path d="M191.5,82.42l-1.73-1a1,1,0,0,0-1.08.06l3.3,1.9A1,1,0,0,0,191.5,82.42Z" fill="#79599f"/><path d="M188.4,81.79a1,1,0,0,0,.37,1.37l1.73,1a1,1,0,0,0,1.36-.37,1,1,0,0,0,.13-.41l-3.3-1.9A1,1,0,0,0,188.4,81.79Z" fill="#79599f"/><path d="M179.37,75.42l-1.73-1a1,1,0,0,0-1.07.06l3.29,1.9A1,1,0,0,0,179.37,75.42Z" fill="#79599f"/><path d="M176.27,74.79a1,1,0,0,0,.37,1.37l1.73,1a1,1,0,0,0,1.49-.78l-3.29-1.9A1,1,0,0,0,176.27,74.79Z" fill="#79599f"/><path d="M160.19,76.09l-1.74,1a1,1,0,0,0-.48.9l3.24-1.87A1,1,0,0,0,160.19,76.09Z" fill="#79599f"/><path d="M158.09,78.45a1,1,0,0,0,1.36.37l1.74-1a1,1,0,0,0,.36-1.37,1,1,0,0,0-.34-.33L158,78A.83.83,0,0,0,158.09,78.45Z" fill="#79599f"/><path d="M154.12,79.59l-1.73,1a1,1,0,0,0-.48.9l3.24-1.87A1,1,0,0,0,154.12,79.59Z" fill="#79599f"/><path d="M152,82a1,1,0,0,0,.86.5,1,1,0,0,0,.5-.13l1.73-1a1,1,0,0,0,.37-1.37,1.07,1.07,0,0,0-.34-.33l-3.24,1.87A.83.83,0,0,0,152,82Z" fill="#79599f"/><path d="M148.06,83.09l-1.73,1a.69.69,0,0,0-.18.16,1,1,0,0,0-.3.73l3.23-1.86A1,1,0,0,0,148.06,83.09Z" fill="#79599f"/><path d="M146,85.45a1,1,0,0,0,.87.5,1,1,0,0,0,.44-.11l.06,0,1.73-1a1,1,0,0,0,.37-1.37.92.92,0,0,0-.35-.33L145.85,85A1,1,0,0,0,146,85.45Z" fill="#79599f"/><path d="M174.26,195.05a3.91,3.91,0,1,1-7.47-1.57l-1.74-1a5.82,5.82,0,0,0-.6,2.57,5.92,5.92,0,0,0,5.16,5.85v65.29a5.92,5.92,0,1,0,2,0V200.82a5.92,5.92,0,0,0,4.65-5.77,6.54,6.54,0,0,0-.07-.89h0a1,1,0,0,0,.37-1.36,1,1,0,0,0-.71-.49l-1.95,1.13A3.76,3.76,0,0,1,174.26,195.05Zm.27,76.95a3.91,3.91,0,1,1-3.9-3.9A3.91,3.91,0,0,1,174.53,272Z" fill="#79599f"/><path d="M170.36,189.14a5.91,5.91,0,0,0-5.31,3.34l1.74,1a3.88,3.88,0,0,1,7.11,0l1.95-1.13a1.22,1.22,0,0,0-.27,0A5.92,5.92,0,0,0,170.36,189.14Z" fill="#79599f"/><path d="M185.17,186.93a1,1,0,0,0,1.41,1.23l1.73-1a1,1,0,0,0,.37-1.36.92.92,0,0,0-.32-.33,1,1,0,0,0-.41-.14Z" fill="#79599f"/><path d="M187.9,185.32a1,1,0,0,0-.59.11l-1.73,1a1,1,0,0,0-.41.5l2.78-1.6Z" fill="#79599f"/><path d="M179.15,191.3a1,1,0,0,0,1.37.36l1.73-1a1,1,0,0,0-.35-1.84l-2.8,1.62A1,1,0,0,0,179.15,191.3Z" fill="#79599f"/><path d="M181.25,188.93l-1.73,1a1,1,0,0,0-.42.51l2.8-1.62A1,1,0,0,0,181.25,188.93Z" fill="#79599f"/><path d="M191.28,184.3a1,1,0,0,0,.87.5,1,1,0,0,0,.49-.14l1.74-1a1,1,0,0,0-.36-1.84l-2.79,1.62A1,1,0,0,0,191.28,184.3Z" fill="#79599f"/><path d="M193.38,181.93l-1.74,1a1,1,0,0,0-.41.51l2.79-1.62A1,1,0,0,0,193.38,181.93Z" fill="#79599f"/><path d="M154.91,187.46a1,1,0,0,0,.36,1.36l1.73,1a1,1,0,0,0,.5.14,1,1,0,0,0,.95-1.29l-2.9-1.68A1,1,0,0,0,154.91,187.46Z" fill="#79599f"/><path d="M158,188.09l-1.73-1a1,1,0,0,0-.72-.1l2.9,1.68A1,1,0,0,0,158,188.09Z" fill="#79599f"/><path d="M161,191a1,1,0,0,0,.36,1.36l1.74,1a1,1,0,0,0,1.36-.36,1,1,0,0,0,.09-.79l-2.91-1.68A1,1,0,0,0,161,191Z" fill="#79599f"/><path d="M164.07,191.59l-1.74-1a1,1,0,0,0-.72-.1l2.91,1.68A1,1,0,0,0,164.07,191.59Z" fill="#79599f"/><path d="M148.84,184a1,1,0,0,0,.37,1.36l1.73,1a1,1,0,0,0,.5.14,1,1,0,0,0,.95-1.29l-2.9-1.68A1,1,0,0,0,148.84,184Z" fill="#79599f"/><path d="M151.94,184.59l-1.73-1a1,1,0,0,0-.72-.1l2.9,1.68A1,1,0,0,0,151.94,184.59Z" fill="#79599f"/><path d="M54.89,61.16l-1.72,1.58a1,1,0,0,0-.32.7,1,1,0,0,0,.28.72l2.42,2.53-1.31,1a3.45,3.45,0,0,0-1.07,2.48,3.51,3.51,0,0,0,1,2.52l7.71,8a3.54,3.54,0,0,0,2.48,1.08h.08a3.49,3.49,0,0,0,2.42-1l1.26-1.15,2.47,2.56a1,1,0,0,0,.7.3h0a1,1,0,0,0,.7-.29c.33-.32.89-.88,1.64-1.64l2.93,2.06a4.53,4.53,0,0,0,2.65.94,3.74,3.74,0,0,0,.75-.08,2.93,2.93,0,0,0,2-1.49l5.36-10c.86-1.57.26-3.76-1.33-5.19,8.5-10.37,16.72-23,11.72-28.18S79.53,41.44,68.77,49.61a4.13,4.13,0,0,0-4.57-1.07L54.08,53.42a3,3,0,0,0-1.63,1.94A4.11,4.11,0,0,0,53,58.67ZM65.47,79.43a1.58,1.58,0,0,1-1.08.41,1.54,1.54,0,0,1-1.09-.47l-7.7-8a1.57,1.57,0,0,1-.44-1.11,1.53,1.53,0,0,1,.4-1l1.38-1.11L66.72,78.3Zm20.07-8.24-5.36,10a.91.91,0,0,1-.65.47,2.32,2.32,0,0,1-1.8-.52L75,79.21c2.48-2.58,6-6.41,9.67-10.74A2.54,2.54,0,0,1,85.54,71.19ZM72.93,49.07c12.13-8.78,20.41-12,23.32-8.92s-.58,11.18-9.82,23A224.26,224.26,0,0,1,71.3,80.17l-16-16.65A221.05,221.05,0,0,1,72.93,49.07ZM54.37,55.91a1.11,1.11,0,0,1,.57-.69l10.13-4.88a1.45,1.45,0,0,1,.59-.12,2.46,2.46,0,0,1,1.5.62c-4.33,3.37-8.17,6.66-10.78,9l-1.7-2.28A2.1,2.1,0,0,1,54.37,55.91Z" fill="#79599f"/><path d="M68.53,61.1l.82,3.41a2.39,2.39,0,0,0,1.7,1.76l3.37,1a2.5,2.5,0,0,0,.66.09,2.45,2.45,0,0,0,1.71-.69l2.56-2.45A2.51,2.51,0,0,0,80,61.83l-.82-3.41a2.45,2.45,0,0,0-1.7-1.77h0l-3.37-.95a2.51,2.51,0,0,0-2.38.6l-2.55,2.45A2.48,2.48,0,0,0,68.53,61.1Zm2.08-.9,2.55-2.46a.44.44,0,0,1,.32-.13.25.25,0,0,1,.12,0l3.38.95a.42.42,0,0,1,.29.31l.82,3.4a.45.45,0,0,1-.13.44l-2.55,2.46a.46.46,0,0,1-.44.11l-3.38-1a.43.43,0,0,1-.3-.31l-.82-3.41A.47.47,0,0,1,70.61,60.2Z" fill="#79599f"/><path d="M241.31,127.61h3.17v4.45a1,1,0,0,0,2,0v-4.45h3.76a1,1,0,0,0,0-2h-3.76v-4.45a1,1,0,0,0-2,0v4.45h-3.17a1,1,0,0,0,0,2Z" fill="#cbc0d8"/><path d="M261.63,137h0a1,1,0,0,0-1,.81c-.06.28-1.36,6.79-6.62,6.79a1,1,0,0,0,0,2c5.26,0,6.56,6.51,6.62,6.78a1,1,0,0,0,1,.82h0a1,1,0,0,0,1-.84c0-.28,1.16-6.76,6.61-6.76a1,1,0,0,0,0-2c-5.45,0-6.57-6.49-6.61-6.76A1,1,0,0,0,261.63,137Zm3.73,8.6a9.56,9.56,0,0,0-3.77,4.38,9.93,9.93,0,0,0-3.8-4.38,10,10,0,0,0,3.8-4.38A9.66,9.66,0,0,0,265.36,145.59Z" fill="#cbc0d8"/><path d="M113.26,52.51c4.21,0,5.27,5.26,5.31,5.48a1,1,0,0,0,1,.82h0a1,1,0,0,0,1-.84c0-.22.94-5.46,5.31-5.46a1,1,0,0,0,0-2c-4.37,0-5.27-5.23-5.31-5.45a1,1,0,0,0-1-.84h0a1,1,0,0,0-1,.81c0,.23-1.1,5.48-5.31,5.48a1,1,0,0,0,0,2Zm6.26-4.23a8.22,8.22,0,0,0,2.8,3.23,8.25,8.25,0,0,0-2.8,3.24,8.52,8.52,0,0,0-2.81-3.24A8.42,8.42,0,0,0,119.52,48.28Z" fill="#cbc0d8"/><circle cx="77.22" cy="134.08" r="3" fill="#cbc0d8"/><circle cx="126.34" cy="77.86" r="1.48" fill="#cbc0d8"/><circle cx="176.93" cy="171.26" r="1.48" fill="#cbc0d8"/><circle cx="143.44" cy="117.68" r="1.48" fill="#cbc0d8"/><circle cx="201.48" cy="112.1" r="3" fill="#cbc0d8"/><circle cx="265.49" cy="115.01" r="1.48" fill="#cbc0d8"/><path d="M136.73,204.86a3,3,0,1,0,4.12,1A3,3,0,0,0,136.73,204.86Z" fill="#cbc0d8"/><circle cx="94.52" cy="158.09" r="1.48" fill="#cbc0d8"/><circle cx="90.13" cy="101.28" r="1.48" fill="#cbc0d8"/><circle cx="78.9" cy="178.55" r="1.48" fill="#cbc0d8"/><circle cx="269.58" cy="199.17" r="1.48" fill="#cbc0d8"/><circle cx="275.92" cy="174.61" r="3" fill="#cbc0d8"/><circle cx="176.57" cy="30.64" r="1.48" fill="#cbc0d8"/><path d="M146.15,84.25a1.32,1.32,0,0,0-.34,0,1.48,1.48,0,0,0-1.48,1.48s0,.11,0,.16l1.51-.87A1,1,0,0,1,146.15,84.25Z" fill="#cbc0d8"/><path d="M146,85.45a1,1,0,0,1-.11-.47l-1.51.87a1.48,1.48,0,0,0,1.47,1.31,1.47,1.47,0,0,0,1.46-1.32,1,1,0,0,1-.44.11A1,1,0,0,1,146,85.45Z" fill="#cbc0d8"/><path d="M188.36,185.47l.23,0a1.48,1.48,0,0,0,1.47-1.38L188,185.33A1,1,0,0,1,188.36,185.47Z" fill="#cbc0d8"/><path d="M188.59,182.53a1.48,1.48,0,0,0-.69,2.79h0l2.11-1.22s0-.06,0-.1A1.49,1.49,0,0,0,188.59,182.53Z" fill="#cbc0d8"/><circle cx="220.24" cy="65.63" r="3" fill="#cbc0d8"/></g></svg>